<?xml version="1.0" standalone="no"?>
<!DOCTYPE svg PUBLIC "-//W3C//DTD SVG 1.1//EN" "http://www.w3.org/Graphics/SVG/1.1/DTD/svg11.dtd" >
<svg>
<metadata>
Created by FontForge 20120731 at Fri Aug 23 21:04:34 2019
 By www-data
Copyright (c) 2010 by . All rights reserved.
</metadata>
<defs>
<font id="ETHLarge-ExpandedBlack" horiz-adv-x="546" >
  <font-face 
    font-family="ETH Large"
    font-weight="900"
    font-stretch="expanded"
    units-per-em="1000"
    panose-1="2 0 5 6 0 0 0 2 0 4"
    ascent="750"
    descent="-250"
    x-height="610"
    cap-height="610"
    bbox="-65 -168 811 781"
    underline-thickness="50"
    underline-position="-50"
    unicode-range="U+0020-2212"
  />
<missing-glyph horiz-adv-x="321" 
 />
    <glyph glyph-name=".notdef" horiz-adv-x="321" 
 />
    <glyph glyph-name="space" unicode=" " horiz-adv-x="321" 
 />
    <glyph glyph-name="exclam" unicode="!" horiz-adv-x="254" 
d="M63 53q0 26 19 43.5t49 17.5q31 0 51 -17.5t20 -43.5t-20 -43.5t-51 -17.5q-29 0 -48.5 17.5t-19.5 43.5zM66 594h127l-11 -412h-105z" />
    <glyph glyph-name="quotedbl" unicode="&#x22;" horiz-adv-x="400" 
d="M320 433h-101l-9 187h110v-187zM160 433h-101l-9 187h110v-187z" />
    <glyph glyph-name="ampersand" unicode="&#x26;" horiz-adv-x="836" 
d="M461 0h-421l-1 598h420v-87h-314v-133h660v-88h-158v-290h-106v290h-396v-203h316v-87z" />
    <glyph glyph-name="parenleft" unicode="(" horiz-adv-x="230" 
d="M58 51q-26 48 -47 109.5t-21 132.5q0 72 22 129t48 99q20 30 41.5 52.5t31.5 31.5l10 10h136l-95 -94q-5 -5 -15 -18t-23 -32l2 2q-19 -31 -35.5 -76t-16.5 -104q0 -57 16 -107t36 -88h-1q7 -13 23 -33.5t37 -42.5t44 -43.5t45 -36.5l-154 4q-6 2 -10 5q-4 2 -7.5 4
t-3.5 4q-11 13 -29 38t-34 53v1z" />
    <glyph glyph-name="parenright" unicode=")" horiz-adv-x="248" 
d="M173 50q-17 -29 -35.5 -54.5t-28.5 -37.5l-16 -16h-158q22 15 45 36.5t44 43.5t37 42.5t23 33.5h-1q20 38 35.5 88t15.5 107q0 59 -16 104t-35 75l1 -1q-14 19 -23.5 32t-13.5 18l-95 94h136l11 -11q9 -8 29.5 -30t41.5 -53q26 -42 48.5 -99.5t22.5 -128.5t-21 -132.5
t-47 -109.5v-1z" />
    <glyph glyph-name="comma" unicode="," horiz-adv-x="218" 
d="M48 147h131l-130 -260h-80z" />
    <glyph glyph-name="hyphen" unicode="-" horiz-adv-x="250" 
d="M4 333h239v-87h-238z" />
    <glyph glyph-name="period" unicode="." horiz-adv-x="305" 
d="M83 53q-1 26 18.5 43.5t49.5 17.5q31 0 51 -17.5t21 -43.5q-1 -26 -21 -43.5t-51 -17.5q-30 0 -49.5 17.5t-18.5 43.5z" />
    <glyph glyph-name="slash" unicode="/" horiz-adv-x="306" 
d="M189 599h107l-195 -599h-103z" />
    <glyph glyph-name="zero" unicode="0" horiz-adv-x="502" 
d="M247 602q111 0 160.5 -80.5t50.5 -225.5q0 -72 -12.5 -129t-38 -96t-65.5 -60t-95 -21q-111 0 -160 81t-49 225q-1 145 48.5 225.5t160.5 80.5zM247 75q56 0 80 58t25 163q-1 106 -25 164t-80 58t-80 -58t-23 -164q-1 -105 23 -163t80 -58z" />
    <glyph glyph-name="one" unicode="1" horiz-adv-x="369" 
d="M282 0h-105v471l-111 -68v105l136 84h80v-592z" />
    <glyph glyph-name="two" unicode="2" horiz-adv-x="500" 
d="M458 87v-87h-428v64q35 34 70 69q30 29 65.5 63.5t67.5 63.5l19 19l-1 -1l28 26t25.5 28.5t18.5 33.5t7 41q0 51 -27.5 79.5t-67.5 28.5q-11 0 -24.5 -2.5t-28.5 -10.5t-30 -22.5t-29 -37.5l-99 34q16 26 37 49t47.5 40t58.5 27t68 10q35 0 70.5 -11t64 -34.5t46.5 -60.5
t18 -89q0 -28 -7 -52t-22.5 -48t-39.5 -50.5t-58 -57.5q-38 -34 -66.5 -60t-54.5 -52h272z" />
    <glyph glyph-name="three" unicode="3" horiz-adv-x="500" 
d="M27 498q19 29 51 52q27 20 69 36.5t104 16.5q13 0 32.5 -1.5t41 -7t42.5 -15.5t37.5 -27t27 -42.5t10.5 -61.5q0 -20 -11 -40.5t-29 -37.5t-40 -29t-43 -15q30 -3 57 -18.5t47.5 -38.5t32 -50.5t11.5 -55.5q0 -35 -14.5 -66t-43 -55t-70.5 -38t-98 -14q-54 0 -95.5 19
t-70.5 42q-34 26 -61 61l89 52q35 -43 73 -65.5t73 -22.5q10 0 28 3t36 12.5t31 27.5t13 48q0 35 -19 56.5t-44.5 33t-51 15t-39.5 3.5h-72v88h75q16 0 37.5 6t41 17.5t32.5 27t13 34.5q0 37 -24.5 55t-59.5 18q-29 0 -52.5 -8t-41 -18.5t-29.5 -22t-19 -18.5z" />
    <glyph glyph-name="four" unicode="4" horiz-adv-x="510" 
d="M471 161h-52v-161h-106v161h-276v68l291 363h91v-345h52v-86zM313 247v174q-19 -23 -37 -46.5t-36 -46.5l-63 -81h136z" />
    <glyph glyph-name="five" unicode="5" horiz-adv-x="519" 
d="M449 503h-262q-3 -33 -4.5 -64.5t-3.5 -72.5q11 5 22 9q10 3 23 6t29 3q35 0 73.5 -11t71 -35t53.5 -61t21 -89t-20.5 -89.5t-52 -62t-69 -36t-71.5 -11.5q-66 0 -123.5 29.5t-103.5 91.5l82 51q32 -44 70.5 -64t75.5 -20q17 0 36 7t35 20.5t26.5 34t10.5 47.5
q0 28 -10 48.5t-26 34.5t-36.5 21t-42.5 7q-35 0 -65 -7t-51.5 -15.5t-34 -16t-12.5 -8.5l-2 341h361v-88z" />
    <glyph glyph-name="six" unicode="6" horiz-adv-x="497" 
d="M259 376q37 0 73 -10t64.5 -32.5t46 -58.5t17.5 -87q0 -50 -18.5 -87.5t-47.5 -62t-65.5 -36.5t-73.5 -12q-36 0 -74 11.5t-70 42.5t-53 86.5t-21 143.5q0 86 18 148t48.5 102t71.5 59t88 19q52 0 90.5 -20t64.5 -43q30 -28 50 -63l-93 -36q-13 21 -30 38q-14 14 -35 26
t-47 12q-30 0 -54 -20.5t-40 -51.5t-24.5 -66t-7.5 -63q9 15 23 26.5t30.5 19t34.5 11.5t34 4zM255 77q42 0 71 30t29 81t-27 75.5t-69 24.5q-37 0 -58.5 -13t-33 -29t-15 -29.5l-3.5 -13.5l2.5 -20t13 -43.5t31.5 -43t59 -19.5z" />
    <glyph glyph-name="seven" unicode="7" horiz-adv-x="449" 
d="M433 592v-63l-264 -529h-113l253 504h-276v88h400z" />
    <glyph glyph-name="eight" unicode="8" horiz-adv-x="495" 
d="M448 439q0 -21 -9.5 -40.5t-24 -35t-32 -27t-34.5 -15.5q19 -5 39.5 -17.5t37.5 -31t28 -43t11 -53.5q0 -54 -23 -90t-57 -57t-71.5 -30t-66.5 -9t-66.5 9t-70.5 30t-56 57t-23 90q0 27 10 50.5t26 42.5t36 32t41 18q-21 5 -39.5 16.5t-32 28t-21 36t-7.5 39.5
q0 35 14 65t40.5 51.5t64 34t84.5 12.5t84.5 -12.5t63.5 -34t40 -51.5t14 -65zM147 439q0 -20 11.5 -35.5t27.5 -26.5t33 -17.5t27 -8.5h1q1 -1 2 -1q10 1 26.5 8t31.5 19t26 28t11 34q0 38 -28.5 58t-69.5 20q-42 0 -70.5 -20t-28.5 -58zM246 72q36 0 58 12t34.5 28.5
t16.5 34.5t4 29q0 29 -14.5 49.5t-34 33.5t-38.5 19t-27 8q-10 -2 -29 -8.5t-38 -19.5t-33 -33.5t-14 -48.5q0 -11 4 -29t16.5 -34.5t35 -28.5t59.5 -12z" />
    <glyph glyph-name="nine" unicode="9" horiz-adv-x="515" 
d="M246 216q-37 0 -73 10t-64.5 32.5t-46 58.5t-17.5 87q0 50 18 87.5t47.5 62t66 36.5t73.5 12q36 0 74.5 -11.5t70.5 -42.5t52.5 -86.5t20.5 -143.5q0 -86 -18 -148t-48.5 -102t-72 -59t-87.5 -19q-53 0 -90.5 19.5t-63.5 43.5q-30 27 -50 63l92 36q13 -21 30 -38
q14 -14 35 -26t47 -12q30 0 54 20.5t40 51.5t24.5 65.5t7.5 63.5q-9 -15 -23 -26.5t-30.5 -19t-34.5 -11.5t-34 -4zM250 515q-42 0 -71 -30t-29 -81t27 -75.5t69 -24.5q37 0 58.5 13t33 29t15 29.5l3.5 13.5l-2.5 20t-13 43.5t-31.5 43t-59 19.5z" />
    <glyph glyph-name="colon" unicode=":" horiz-adv-x="305" 
d="M83 53q0 26 19 43.5t49 17.5q31 0 51 -17.5t20 -43.5t-20 -43.5t-51 -17.5q-30 0 -49 17.5t-19 43.5zM82 321q0 26 19.5 43.5t49.5 17.5q31 0 51 -17.5t20 -43.5t-20 -43.5t-51 -17.5q-30 0 -49.5 17.5t-19.5 43.5z" />
    <glyph glyph-name="semicolon" unicode=";" horiz-adv-x="335" 
d="M118 147h131l-130 -260h-80zM99 321q0 26 20 43.5t50 17.5t50 -17.5t20 -43.5t-20 -43.5t-50 -17.5t-50 17.5t-20 43.5z" />
    <glyph glyph-name="question" unicode="?" horiz-adv-x="495" 
d="M119 256q42 0 71 5t49.5 12.5t33.5 16t23 14.5h-1q15 10 25 24t15 29q3 12 5 22.5t2 20.5q0 34 -13 60q-14 29 -37 41h2q-9 4 -20 7t-25 3q-17 0 -33 -3.5t-28.5 -11.5t-20 -20.5t-7.5 -30.5l-111 32q5 14 20.5 38t35.5 39q21 17 57 31.5t87 14.5q55 0 92 -20h-2
q44 -21 65 -51q23 -30 34 -64.5t11 -64.5q0 -23 -6 -50.5t-23 -56.5q-22 -35 -53.5 -59t-70.5 -38t-84 -20t-93 -6v86zM113 53q0 26 19 43.5t49 17.5q31 0 51 -17.5t20 -43.5t-20 -43.5t-51 -17.5q-29 0 -48.5 17.5t-19.5 43.5z" />
    <glyph glyph-name="A" unicode="A" 
d="M461 0l-71 165h-224q-17 -39 -35.5 -83.5t-34.5 -81.5h-112l294 674l296 -674h-113zM354 254q-11 27 -19.5 47.5t-16.5 40.5t-17.5 43t-22.5 57q-18 -45 -37 -90.5t-39 -97.5h152z" />
    <glyph glyph-name="B" unicode="B" horiz-adv-x="498" 
d="M439 449q0 -48 -16.5 -74.5t-42.5 -43.5q17 -8 33 -20t28.5 -29.5t20 -41t7.5 -54.5q0 -57 -22 -93t-56.5 -56.5t-75.5 -28.5t-78 -8h-186l-1 610h179q42 0 80 -9t67 -28t46 -50t17 -74zM158 369h62q23 0 43.5 4.5t35.5 14t24 24.5t9 37t-9.5 36t-24 22t-33 11t-36.5 3
h-71v-152zM231 89q131 0 131 101q0 24 -10 41t-25 28t-33.5 16t-34.5 5h-101v-191h73z" />
    <glyph glyph-name="C" unicode="C" horiz-adv-x="629" 
d="M610 107q-54 -54 -120.5 -86t-138.5 -32q-71 2 -129 25t-103 68q-43 45 -66 102t-23 120q-1 65 22.5 122t66.5 102q42 43 101.5 67.5t131.5 24.5t137.5 -31.5t119.5 -85.5l-67 -72q-47 47 -95.5 73.5t-94.5 26.5q-47 0 -87 -18t-69 -48.5t-45 -72t-16 -88.5t16 -88
t45 -71.5t69 -48.5t87 -18q45 0 94 27t95 73z" />
    <glyph glyph-name="D" unicode="D" horiz-adv-x="582" 
d="M227 610q57 0 113.5 -18t101.5 -55t73 -94.5t28 -136.5t-28.5 -137t-74.5 -95.5t-104 -55.5t-117 -18h-175l-1 610h184zM219 89q48 0 87.5 15t68.5 43t45 68.5t16 90.5t-16 90t-45 67.5t-68.5 42.5t-87.5 15h-69v-432h69z" />
    <glyph glyph-name="E" unicode="E" horiz-adv-x="580" 
d="M536 0h-485l-1 610h464v-89h-356v-152h325v-89h-325v-191h378v-89z" />
    <glyph glyph-name="F" unicode="F" horiz-adv-x="434" 
d="M422 521h-285v-152h214v-89h-214v-280h-106l-1 610h392v-89z" />
    <glyph glyph-name="G" unicode="G" horiz-adv-x="681" 
d="M353 -11q-73 0 -132 24.5t-101 68.5q-44 45 -67 102t-23 120q0 65 23 122t67 102q43 43 101.5 67.5t131.5 24.5q71 0 137 -31.5t120 -85.5l-67 -72q-47 47 -95 73.5t-95 26.5q-48 0 -87.5 -18t-68.5 -48.5t-45.5 -72t-16.5 -88.5t16.5 -88t45.5 -71.5t68.5 -48.5
t87.5 -18h11q30 0 60 9.5t53 26t37.5 39t14.5 49.5v51h-181v89h289v-148q0 -33 -18 -69t-54 -66t-89 -50t-122 -20h-1z" />
    <glyph glyph-name="H" unicode="H" horiz-adv-x="665" 
d="M609 0h-108v280h-345v-280h-106l-1 610h107v-241h345v241h108v-610z" />
    <glyph glyph-name="I" unicode="I" horiz-adv-x="204" 
d="M156 0h-107l-1 610h108v-610z" />
    <glyph glyph-name="J" unicode="J" horiz-adv-x="319" 
d="M270 610v-439q0 -47 -13.5 -81.5t-44 -57t-79.5 -33t-120 -10.5v88q54 0 84 9t44.5 23.5t18 32.5t3.5 36v343h-119v89h226z" />
    <glyph glyph-name="K" unicode="K" horiz-adv-x="620" 
d="M637 0h-142l-266 263l-3 -3l-85 -71v-189h-107l-1 610h108v-309l350 309h149l-335 -290z" />
    <glyph glyph-name="L" unicode="L" horiz-adv-x="452" 
d="M441 0h-410l-1 610h107v-521h304v-89z" />
    <glyph glyph-name="M" unicode="M" horiz-adv-x="698" 
d="M674 0h-114l-32 306l-184 -413l-177 425l-33 -318h-117l117 674l216 -544q0 -1 13 28.5t33.5 77.5t47 108t53 120.5t50.5 116t41 93.5z" />
    <glyph glyph-name="N" unicode="N" horiz-adv-x="686" 
d="M54 717l481 -551v444h107v-727l-481 552v-435h-106z" />
    <glyph glyph-name="O" unicode="O" horiz-adv-x="827" 
d="M413 -11q-88 0 -160.5 24.5t-123.5 68.5h2q-56 45 -84.5 101.5t-29.5 120.5q0 65 29 121.5t85 101.5h-2q51 44 123.5 68.5t160.5 24.5t160 -24.5t124 -68.5q53 -45 83.5 -101.5t30.5 -121.5q0 -64 -30 -121t-82 -101q-53 -44 -125 -68.5t-161 -24.5zM140 304
q0 -47 21 -88t57.5 -71.5t86.5 -48.5t108 -18t108 18t86.5 48.5t57 71.5t20.5 88t-20.5 88.5t-57 72t-86.5 48.5t-108 18t-108 -18t-86.5 -48.5t-57.5 -72t-21 -88.5z" />
    <glyph glyph-name="P" unicode="P" horiz-adv-x="474" 
d="M397 561q31 -26 46.5 -62t15.5 -78q1 -45 -20 -80t-52 -59q-9 -7 -21.5 -14.5t-32.5 -13.5t-48.5 -10t-67.5 -4h-69v-240h-107l-1 610h181q59 0 102.5 -13t72.5 -36h1zM323 353q27 19 30 66q-2 52 -25 74q-16 12 -43.5 20t-63.5 8h-73v-191h102q18 0 37.5 5.5t35.5 17.5z
" />
    <glyph glyph-name="Q" unicode="Q" horiz-adv-x="689" 
d="M647 -168q-40 10 -91 28t-105 39.5t-108 46t-100 49t-81 47.5t-51 41l1 -1q-42 44 -67.5 101.5t-25.5 120.5q0 65 24.5 121.5t69.5 101.5h-1q42 44 101.5 68.5t130.5 24.5q72 0 130.5 -24.5t101.5 -68.5q44 -45 68 -101.5t24 -121.5q0 -64 -23.5 -121t-67.5 -101
q-27 -27 -62 -48.5t-75 -32.5q59 -28 115.5 -49t91.5 -22v-98zM127 304q0 -66 29.5 -118.5t83.5 -81.5l-1 1q24 -13 51.5 -20t53.5 -7q47 0 87 18t69 48.5t45 71.5t16 88t-16 88.5t-45 72t-69 48.5t-87 18t-86.5 -18t-68.5 -48.5t-45.5 -72t-16.5 -88.5z" />
    <glyph glyph-name="R" unicode="R" horiz-adv-x="500" 
d="M376 0l-198 240h-10v-240h-107l-1 610h155q57 0 101 -13t73 -36q32 -27 47.5 -63t15.5 -77q1 -46 -19.5 -81t-51.5 -59q-11 -8 -30 -16.5t-51 -15.5q24 -30 51.5 -62.5t55.5 -65.5t54 -64t47 -57h-132zM243 330q18 0 37.5 6t35.5 17q12 11 20.5 27.5t9.5 40.5
q-2 50 -25 72q-16 12 -43.5 20t-62.5 8h-47v-191h75z" />
    <glyph glyph-name="S" unicode="S" horiz-adv-x="481" 
d="M236 -10q-37 0 -69.5 11.5t-60 32t-49 48.5t-36.5 60l75 62q7 -17 22.5 -38.5t34.5 -41t40.5 -32.5t42.5 -13q33 0 53.5 8.5t32.5 21.5t16 26.5t4 24.5t-2.5 24.5t-13.5 29t-33.5 31.5t-62.5 32q-58 24 -95 45.5t-58.5 43t-30 44t-8.5 48.5q0 27 10.5 57t34 54.5t62 40.5
t95.5 16q77 0 127 -37.5t77 -105.5l-91 -29q-31 79 -113 79q-45 0 -67 -17t-22 -45q0 -17 11.5 -30.5t31.5 -26t46.5 -24t57.5 -24.5q52 -23 82 -48t45 -51t19 -51t4 -47q0 -23 -10 -54t-34 -59t-65 -47t-103 -19z" />
    <glyph glyph-name="T" unicode="T" horiz-adv-x="427" 
d="M438 521h-161v-521h-107v521h-178v89h446v-89z" />
    <glyph glyph-name="U" unicode="U" horiz-adv-x="562" 
d="M516 610v-410q0 -53 -16.5 -93t-47 -66t-73 -39t-94.5 -13q-51 0 -94.5 13t-75 39t-50 66t-18.5 93v410h109v-414q0 -29 11 -51t29 -37t41 -22.5t48 -7.5t47.5 7t39 21t26 36.5t9.5 53.5v414h109z" />
    <glyph glyph-name="V" unicode="V" horiz-adv-x="560" 
d="M-22 610h113l182 -440l179 440h114l-294 -716z" />
    <glyph glyph-name="W" unicode="W" horiz-adv-x="719" 
d="M104 610l115 -423q13 50 26 107t26.5 115.5t26.5 114.5t25 105l61 1l110 -447q8 24 19.5 64.5t24.5 88t25.5 96.5t23 88.5t16.5 64.5l6 25h120l-247 -725l-128 486q-36 -175 -71.5 -299t-51.5 -189l-249 727h122z" />
    <glyph glyph-name="X" unicode="X" horiz-adv-x="611" 
d="M491 0l-200 243q-45 -60 -91 -123t-89 -120h-125l238 321l-226 289h127l166 -211q39 53 79.5 106.5t78.5 104.5h125l-214 -290l258 -320h-127z" />
    <glyph glyph-name="Y" unicode="Y" horiz-adv-x="503" 
d="M68 610l172 -234q13 17 25.5 34.5t24.5 34.5l116 165h125l-234 -331v-279h-107v280l-246 330h124z" />
    <glyph glyph-name="Z" unicode="Z" horiz-adv-x="479" 
d="M22 610h439v-66l-317 -455h317v-89h-454v66l314 455h-299v89z" />
    <glyph glyph-name="bracketleft" unicode="[" horiz-adv-x="203" 
d="M192 603v-88h-80v-483h80v-88h-185v659h185z" />
    <glyph glyph-name="bracketright" unicode="]" horiz-adv-x="199" 
d="M182 603v-659h-186v88h80v483h-80v88h186z" />
    <glyph glyph-name="underscore" unicode="_" horiz-adv-x="582" 
d="M14 54h529v-88h-529v88z" />
    <glyph glyph-name="quotesingle" unicode="'" horiz-adv-x="200" 
d="M0 599h109l-9 -187h-100v187z" />
    <glyph glyph-name="quotedblleft" unicode="&#x201c;" horiz-adv-x="350" 
d="M314 -95h-110l9 187h101v-187zM44 92h101l9 -187h-110v187z" />
    <glyph glyph-name="endash" unicode="&#x2013;" horiz-adv-x="400" 
d="M9 333h380v-87h-380v87z" />
    <glyph glyph-name="quotedblright" unicode="&#x201d;" horiz-adv-x="350" 
d="M314 424h-101l-9 187h110v-187zM44 611h110l-9 -187h-101v187z" />
    <glyph glyph-name="grave" unicode="`" horiz-adv-x="420" 
d="M54 671h152l87 -127h-83z" />
    <glyph glyph-name="acute" unicode="&#xb4;" horiz-adv-x="420" 
d="M187 544h-93l98 127h151z" />
    <glyph glyph-name="circumflex" unicode="&#x2c6;" horiz-adv-x="418" 
d="M355 538h-120l-42 64l-22 -32q-5 -6 -9 -11.5t-7 -10.5q-4 -5 -7 -10h-119l126 128h75z" />
    <glyph glyph-name="tilde" unicode="&#x2dc;" horiz-adv-x="420" 
d="M149 655q23 0 35.5 -7t29.5 -18q0 -1 0.5 -4t0.5 -7v-11q3 0 5.5 8.5t4.5 19.5q3 12 5 29l76 -38q0 -17 -6 -29q-3 -6 -9.5 -16t-17 -19.5t-25 -17t-33.5 -7.5q-22 0 -39.5 8t-27.5 17q-2 -5 -6 -15.5t-12 -28.5l-76 55q3 7 10 20.5t19 27t28.5 23.5t37.5 10z" />
    <glyph glyph-name="breve" unicode="&#x2d8;" horiz-adv-x="270" 
d="M268 679q-13 -51 -47 -86.5t-84 -35.5t-85 35.5t-49 86.5l94 21q8 -27 18.5 -44.5t21.5 -17.5t21.5 17.5t17.5 44.5z" />
    <glyph glyph-name="dieresis" unicode="&#xa8;" horiz-adv-x="420" 
d="M56 598q0 23 17.5 38.5t43.5 15.5q25 0 43.5 -15.5t18.5 -38.5q0 -22 -18.5 -37t-43.5 -15q-26 0 -43.5 15t-17.5 37zM218 598q0 23 17.5 38.5t43.5 15.5q27 0 45 -15.5t18 -38.5q0 -22 -18 -37t-45 -15q-26 0 -43.5 15t-17.5 37z" />
    <glyph glyph-name="cedilla" unicode="&#xb8;" horiz-adv-x="250" 
d="M82 0h146l-131 -148h-103z" />
    <glyph glyph-name="ogonek" unicode="&#x2db;" horiz-adv-x="270" 
d="M228 -148h-103l-131 148h146z" />
    <glyph glyph-name="caron" unicode="&#x2c7;" horiz-adv-x="418" 
d="M230 538h-75l-126 128h120l43 -74l44 74h119z" />
    <glyph glyph-name="emdash" unicode="&#x2014;" horiz-adv-x="557" 
d="M13 333h529v-87h-529v87z" />
    <glyph glyph-name="minus" unicode="&#x2212;" horiz-adv-x="250" 
d="M4 333h239v-87h-238z" />
    <glyph glyph-name="Aacute" unicode="&#xc1;" 
d="M461 0l-71 165h-224q-17 -39 -35.5 -83.5t-34.5 -81.5h-112l294 674l296 -674h-113zM354 254q-11 27 -19.5 47.5t-16.5 40.5t-17.5 43t-22.5 57q-18 -45 -37 -90.5t-39 -97.5h152zM241 654h-93l98 127h151z" />
    <glyph glyph-name="Acircumflex" unicode="&#xc2;" 
d="M461 0l-71 165h-224q-17 -39 -35.5 -83.5t-34.5 -81.5h-112l294 674l296 -674h-113zM354 254q-11 27 -19.5 47.5t-16.5 40.5t-17.5 43t-22.5 57q-18 -45 -37 -90.5t-39 -97.5h152zM436 648h-120l-42 64l-22 -32q-5 -6 -9 -11.5t-7 -10.5q-4 -5 -7 -10h-119l126 128h75z
" />
    <glyph glyph-name="Adieresis" unicode="&#xc4;" 
d="M461 0l-71 165h-224q-17 -39 -35.5 -83.5t-34.5 -81.5h-112l294 674l296 -674h-113zM354 254q-11 27 -19.5 47.5t-16.5 40.5t-17.5 43t-22.5 57q-18 -45 -37 -90.5t-39 -97.5h152zM130 708q0 23 17.5 38.5t43.5 15.5q25 0 43.5 -15.5t18.5 -38.5q0 -22 -18.5 -37
t-43.5 -15q-26 0 -43.5 15t-17.5 37zM292 708q0 23 17.5 38.5t43.5 15.5q27 0 45 -15.5t18 -38.5q0 -22 -18 -37t-45 -15q-26 0 -43.5 15t-17.5 37z" />
    <glyph glyph-name="Agrave" unicode="&#xc0;" 
d="M461 0l-71 165h-224q-17 -39 -35.5 -83.5t-34.5 -81.5h-112l294 674l296 -674h-113zM354 254q-11 27 -19.5 47.5t-16.5 40.5t-17.5 43t-22.5 57q-18 -45 -37 -90.5t-39 -97.5h152zM153 781h152l87 -127h-83z" />
    <glyph glyph-name="Atilde" unicode="&#xc3;" 
d="M461 0l-71 165h-224q-17 -39 -35.5 -83.5t-34.5 -81.5h-112l294 674l296 -674h-113zM354 254q-11 27 -19.5 47.5t-16.5 40.5t-17.5 43t-22.5 57q-18 -45 -37 -90.5t-39 -97.5h152zM242 765q23 0 35.5 -7t29.5 -18q0 -1 0.5 -4t0.5 -7v-11q3 0 5.5 8.5t4.5 19.5q3 12 5 29
l76 -38q0 -17 -6 -29q-3 -6 -9.5 -16t-17 -19.5t-25 -17t-33.5 -7.5q-22 0 -39.5 8t-27.5 17q-2 -5 -6 -15.5t-12 -28.5l-76 55q3 7 10 20.5t19 27t28.5 23.5t37.5 10z" />
    <glyph glyph-name="Ccedilla" unicode="&#xc7;" horiz-adv-x="629" 
d="M610 107q-54 -54 -120.5 -86t-138.5 -32q-71 2 -129 25t-103 68q-43 45 -66 102t-23 120q-1 65 22.5 122t66.5 102q42 43 101.5 67.5t131.5 24.5t137.5 -31.5t119.5 -85.5l-67 -72q-47 47 -95.5 73.5t-94.5 26.5q-47 0 -87 -18t-69 -48.5t-45 -72t-16 -88.5t16 -88
t45 -71.5t69 -48.5t87 -18q45 0 94 27t95 73zM285 0h146l-131 -148h-103z" />
    <glyph glyph-name="Eacute" unicode="&#xc9;" horiz-adv-x="580" 
d="M536 0h-485l-1 610h464v-89h-356v-152h325v-89h-325v-191h378v-89zM258 654h-93l98 127h151z" />
    <glyph glyph-name="Ecircumflex" unicode="&#xca;" horiz-adv-x="580" 
d="M536 0h-485l-1 610h464v-89h-356v-152h325v-89h-325v-191h378v-89zM453 648h-120l-42 64l-22 -32q-5 -6 -9 -11.5t-7 -10.5q-4 -5 -7 -10h-119l126 128h75z" />
    <glyph glyph-name="Edieresis" unicode="&#xcb;" horiz-adv-x="580" 
d="M536 0h-485l-1 610h464v-89h-356v-152h325v-89h-325v-191h378v-89zM147 708q0 23 17.5 38.5t43.5 15.5q25 0 43.5 -15.5t18.5 -38.5q0 -22 -18.5 -37t-43.5 -15q-26 0 -43.5 15t-17.5 37zM309 708q0 23 17.5 38.5t43.5 15.5q27 0 45 -15.5t18 -38.5q0 -22 -18 -37
t-45 -15q-26 0 -43.5 15t-17.5 37z" />
    <glyph glyph-name="Egrave" unicode="&#xc8;" horiz-adv-x="580" 
d="M536 0h-485l-1 610h464v-89h-356v-152h325v-89h-325v-191h378v-89zM170 781h152l87 -127h-83z" />
    <glyph glyph-name="Iacute" unicode="&#xcd;" horiz-adv-x="204" 
d="M156 0h-107l-1 610h108v-610zM71 654h-93l98 127h151z" />
    <glyph glyph-name="Icircumflex" unicode="&#xce;" horiz-adv-x="204" 
d="M156 0h-107l-1 610h108v-610zM265 648h-120l-42 64l-22 -32q-5 -6 -9 -11.5t-7 -10.5q-4 -5 -7 -10h-119l126 128h75z" />
    <glyph glyph-name="Idieresis" unicode="&#xcf;" horiz-adv-x="204" 
d="M156 0h-107l-1 610h108v-610zM-41 708q0 23 17.5 38.5t43.5 15.5q25 0 43.5 -15.5t18.5 -38.5q0 -22 -18.5 -37t-43.5 -15q-26 0 -43.5 15t-17.5 37zM121 708q0 23 17.5 38.5t43.5 15.5q27 0 45 -15.5t18 -38.5q0 -22 -18 -37t-45 -15q-26 0 -43.5 15t-17.5 37z" />
    <glyph glyph-name="Igrave" unicode="&#xcc;" horiz-adv-x="204" 
d="M156 0h-107l-1 610h108v-610zM-17 781h152l87 -127h-83z" />
    <glyph glyph-name="Ntilde" unicode="&#xd1;" horiz-adv-x="686" 
d="M54 717l481 -551v444h107v-727l-481 552v-435h-106zM312 765q23 0 35.5 -7t29.5 -18q0 -1 0.5 -4t0.5 -7v-11q3 0 5.5 8.5t4.5 19.5q3 12 5 29l76 -38q0 -17 -6 -29q-3 -6 -9.5 -16t-17 -19.5t-25 -17t-33.5 -7.5q-22 0 -39.5 8t-27.5 17q-2 -5 -6 -15.5t-12 -28.5
l-76 55q3 7 10 20.5t19 27t28.5 23.5t37.5 10z" />
    <glyph glyph-name="Oacute" unicode="&#xd3;" horiz-adv-x="827" 
d="M413 -11q-88 0 -160.5 24.5t-123.5 68.5h2q-56 45 -84.5 101.5t-29.5 120.5q0 65 29 121.5t85 101.5h-2q51 44 123.5 68.5t160.5 24.5t160 -24.5t124 -68.5q53 -45 83.5 -101.5t30.5 -121.5q0 -64 -30 -121t-82 -101q-53 -44 -125 -68.5t-161 -24.5zM140 304
q0 -47 21 -88t57.5 -71.5t86.5 -48.5t108 -18t108 18t86.5 48.5t57 71.5t20.5 88t-20.5 88.5t-57 72t-86.5 48.5t-108 18t-108 -18t-86.5 -48.5t-57.5 -72t-21 -88.5zM382 654h-93l98 127h151z" />
    <glyph glyph-name="Ocircumflex" unicode="&#xd4;" horiz-adv-x="827" 
d="M413 -11q-88 0 -160.5 24.5t-123.5 68.5h2q-56 45 -84.5 101.5t-29.5 120.5q0 65 29 121.5t85 101.5h-2q51 44 123.5 68.5t160.5 24.5t160 -24.5t124 -68.5q53 -45 83.5 -101.5t30.5 -121.5q0 -64 -30 -121t-82 -101q-53 -44 -125 -68.5t-161 -24.5zM140 304
q0 -47 21 -88t57.5 -71.5t86.5 -48.5t108 -18t108 18t86.5 48.5t57 71.5t20.5 88t-20.5 88.5t-57 72t-86.5 48.5t-108 18t-108 -18t-86.5 -48.5t-57.5 -72t-21 -88.5zM576 648h-120l-42 64l-22 -32q-5 -6 -9 -11.5t-7 -10.5q-4 -5 -7 -10h-119l126 128h75z" />
    <glyph glyph-name="Odieresis" unicode="&#xd6;" horiz-adv-x="827" 
d="M413 -11q-88 0 -160.5 24.5t-123.5 68.5h2q-56 45 -84.5 101.5t-29.5 120.5q0 65 29 121.5t85 101.5h-2q51 44 123.5 68.5t160.5 24.5t160 -24.5t124 -68.5q53 -45 83.5 -101.5t30.5 -121.5q0 -64 -30 -121t-82 -101q-53 -44 -125 -68.5t-161 -24.5zM140 304
q0 -47 21 -88t57.5 -71.5t86.5 -48.5t108 -18t108 18t86.5 48.5t57 71.5t20.5 88t-20.5 88.5t-57 72t-86.5 48.5t-108 18t-108 -18t-86.5 -48.5t-57.5 -72t-21 -88.5zM270 708q0 23 17.5 38.5t43.5 15.5q25 0 43.5 -15.5t18.5 -38.5q0 -22 -18.5 -37t-43.5 -15
q-26 0 -43.5 15t-17.5 37zM432 708q0 23 17.5 38.5t43.5 15.5q27 0 45 -15.5t18 -38.5q0 -22 -18 -37t-45 -15q-26 0 -43.5 15t-17.5 37z" />
    <glyph glyph-name="Ograve" unicode="&#xd2;" horiz-adv-x="827" 
d="M413 -11q-88 0 -160.5 24.5t-123.5 68.5h2q-56 45 -84.5 101.5t-29.5 120.5q0 65 29 121.5t85 101.5h-2q51 44 123.5 68.5t160.5 24.5t160 -24.5t124 -68.5q53 -45 83.5 -101.5t30.5 -121.5q0 -64 -30 -121t-82 -101q-53 -44 -125 -68.5t-161 -24.5zM140 304
q0 -47 21 -88t57.5 -71.5t86.5 -48.5t108 -18t108 18t86.5 48.5t57 71.5t20.5 88t-20.5 88.5t-57 72t-86.5 48.5t-108 18t-108 -18t-86.5 -48.5t-57.5 -72t-21 -88.5zM294 781h152l87 -127h-83z" />
    <glyph glyph-name="Scaron" unicode="&#x160;" horiz-adv-x="481" 
d="M236 -10q-37 0 -69.5 11.5t-60 32t-49 48.5t-36.5 60l75 62q7 -17 22.5 -38.5t34.5 -41t40.5 -32.5t42.5 -13q33 0 53.5 8.5t32.5 21.5t16 26.5t4 24.5t-2.5 24.5t-13.5 29t-33.5 31.5t-62.5 32q-58 24 -95 45.5t-58.5 43t-30 44t-8.5 48.5q0 27 10.5 57t34 54.5t62 40.5
t95.5 16q77 0 127 -37.5t77 -105.5l-91 -29q-31 79 -113 79q-45 0 -67 -17t-22 -45q0 -17 11.5 -30.5t31.5 -26t46.5 -24t57.5 -24.5q52 -23 82 -48t45 -51t19 -51t4 -47q0 -23 -10 -54t-34 -59t-65 -47t-103 -19zM278 648h-75l-126 128h120l43 -74l44 74h119z" />
    <glyph glyph-name="Uacute" unicode="&#xda;" horiz-adv-x="562" 
d="M516 610v-410q0 -53 -16.5 -93t-47 -66t-73 -39t-94.5 -13q-51 0 -94.5 13t-75 39t-50 66t-18.5 93v410h109v-414q0 -29 11 -51t29 -37t41 -22.5t48 -7.5t47.5 7t39 21t26 36.5t9.5 53.5v414h109zM249 654h-93l98 127h151z" />
    <glyph glyph-name="Ucircumflex" unicode="&#xdb;" horiz-adv-x="562" 
d="M516 610v-410q0 -53 -16.5 -93t-47 -66t-73 -39t-94.5 -13q-51 0 -94.5 13t-75 39t-50 66t-18.5 93v410h109v-414q0 -29 11 -51t29 -37t41 -22.5t48 -7.5t47.5 7t39 21t26 36.5t9.5 53.5v414h109zM444 648h-120l-42 64l-22 -32q-5 -6 -9 -11.5t-7 -10.5q-4 -5 -7 -10
h-119l126 128h75z" />
    <glyph glyph-name="Udieresis" unicode="&#xdc;" horiz-adv-x="562" 
d="M516 610v-410q0 -53 -16.5 -93t-47 -66t-73 -39t-94.5 -13q-51 0 -94.5 13t-75 39t-50 66t-18.5 93v410h109v-414q0 -29 11 -51t29 -37t41 -22.5t48 -7.5t47.5 7t39 21t26 36.5t9.5 53.5v414h109zM138 708q0 23 17.5 38.5t43.5 15.5q25 0 43.5 -15.5t18.5 -38.5
q0 -22 -18.5 -37t-43.5 -15q-26 0 -43.5 15t-17.5 37zM300 708q0 23 17.5 38.5t43.5 15.5q27 0 45 -15.5t18 -38.5q0 -22 -18 -37t-45 -15q-26 0 -43.5 15t-17.5 37z" />
    <glyph glyph-name="Ugrave" unicode="&#xd9;" horiz-adv-x="562" 
d="M516 610v-410q0 -53 -16.5 -93t-47 -66t-73 -39t-94.5 -13q-51 0 -94.5 13t-75 39t-50 66t-18.5 93v410h109v-414q0 -29 11 -51t29 -37t41 -22.5t48 -7.5t47.5 7t39 21t26 36.5t9.5 53.5v414h109zM161 781h152l87 -127h-83z" />
    <glyph glyph-name="Yacute" unicode="&#xdd;" horiz-adv-x="503" 
d="M68 610l172 -234q13 17 25.5 34.5t24.5 34.5l116 165h125l-234 -331v-279h-107v280l-246 330h124zM220 654h-93l98 127h151z" />
    <glyph glyph-name="Ydieresis" unicode="&#x178;" horiz-adv-x="503" 
d="M68 610l172 -234q13 17 25.5 34.5t24.5 34.5l116 165h125l-234 -331v-279h-107v280l-246 330h124zM108 708q0 23 17.5 38.5t43.5 15.5q25 0 43.5 -15.5t18.5 -38.5q0 -22 -18.5 -37t-43.5 -15q-26 0 -43.5 15t-17.5 37zM270 708q0 23 17.5 38.5t43.5 15.5q27 0 45 -15.5
t18 -38.5q0 -22 -18 -37t-45 -15q-26 0 -43.5 15t-17.5 37z" />
    <glyph glyph-name="Zcaron" unicode="&#x17d;" horiz-adv-x="479" 
d="M22 610h439v-66l-317 -455h317v-89h-454v66l314 455h-299v89zM277 648h-75l-126 128h120l43 -74l44 74h119z" />
    <glyph glyph-name=".null" horiz-adv-x="0" 
 />
    <glyph glyph-name="nonmarkingreturn" horiz-adv-x="321" 
 />
    <glyph glyph-name="Euro" unicode="&#x20ac;" horiz-adv-x="657" 
d="M611 37q-47 -22 -90.5 -34t-80.5 -12q-69 0 -127 24.5t-100 66.5q-29 30 -50.5 66.5t-30.5 76.5h-82v67h73v21v14.5t1 8.5h-74v66h90q11 32 29 60t44 54q42 42 100 66t127 24q37 0 80.5 -11.5t90.5 -32.5l-36 -83q-42 19 -76 30t-59 11q-63 0 -112.5 -33t-75.5 -85h279
v-66h-303q-1 -1 -1 -8v-15v-21h304v-67h-290q22 -64 74.5 -105t124.5 -41q51 0 136 41z" />
    <glyph glyph-name="a" unicode="a" 
d="M461 0l-71 165h-224q-17 -39 -35.5 -83.5t-34.5 -81.5h-112l294 674l296 -674h-113zM354 254q-11 27 -19.5 47.5t-16.5 40.5t-17.5 43t-22.5 57q-18 -45 -37 -90.5t-39 -97.5h152z" />
    <glyph glyph-name="b" unicode="b" horiz-adv-x="498" 
d="M439 449q0 -48 -16.5 -74.5t-42.5 -43.5q17 -8 33 -20t28.5 -29.5t20 -41t7.5 -54.5q0 -57 -22 -93t-56.5 -56.5t-75.5 -28.5t-78 -8h-186l-1 610h179q42 0 80 -9t67 -28t46 -50t17 -74zM158 369h62q23 0 43.5 4.5t35.5 14t24 24.5t9 37t-9.5 36t-24 22t-33 11t-36.5 3
h-71v-152zM231 89q131 0 131 101q0 24 -10 41t-25 28t-33.5 16t-34.5 5h-101v-191h73z" />
    <glyph glyph-name="c" unicode="c" horiz-adv-x="629" 
d="M610 107q-54 -54 -120.5 -86t-138.5 -32q-71 2 -129 25t-103 68q-43 45 -66 102t-23 120q-1 65 22.5 122t66.5 102q42 43 101.5 67.5t131.5 24.5t137.5 -31.5t119.5 -85.5l-67 -72q-47 47 -95.5 73.5t-94.5 26.5q-47 0 -87 -18t-69 -48.5t-45 -72t-16 -88.5t16 -88
t45 -71.5t69 -48.5t87 -18q45 0 94 27t95 73z" />
    <glyph glyph-name="d" unicode="d" horiz-adv-x="582" 
d="M227 610q57 0 113.5 -18t101.5 -55t73 -94.5t28 -136.5t-28.5 -137t-74.5 -95.5t-104 -55.5t-117 -18h-175l-1 610h184zM219 89q48 0 87.5 15t68.5 43t45 68.5t16 90.5t-16 90t-45 67.5t-68.5 42.5t-87.5 15h-69v-432h69z" />
    <glyph glyph-name="e" unicode="e" horiz-adv-x="580" 
d="M536 0h-485l-1 610h464v-89h-356v-152h325v-89h-325v-191h378v-89z" />
    <glyph glyph-name="f" unicode="f" horiz-adv-x="434" 
d="M422 521h-285v-152h214v-89h-214v-280h-106l-1 610h392v-89z" />
    <glyph glyph-name="g" unicode="g" horiz-adv-x="681" 
d="M353 -11q-73 0 -132 24.5t-101 68.5q-44 45 -67 102t-23 120q0 65 23 122t67 102q43 43 101.5 67.5t131.5 24.5q71 0 137 -31.5t120 -85.5l-67 -72q-47 47 -95 73.5t-95 26.5q-48 0 -87.5 -18t-68.5 -48.5t-45.5 -72t-16.5 -88.5t16.5 -88t45.5 -71.5t68.5 -48.5
t87.5 -18h11q30 0 60 9.5t53 26t37.5 39t14.5 49.5v51h-181v89h289v-148q0 -33 -18 -69t-54 -66t-89 -50t-122 -20h-1z" />
    <glyph glyph-name="h" unicode="h" horiz-adv-x="665" 
d="M609 0h-108v280h-345v-280h-106l-1 610h107v-241h345v241h108v-610z" />
    <glyph glyph-name="i" unicode="i" horiz-adv-x="204" 
d="M156 0h-107l-1 610h108v-610z" />
    <glyph glyph-name="j" unicode="j" horiz-adv-x="319" 
d="M270 610v-439q0 -47 -13.5 -81.5t-44 -57t-79.5 -33t-120 -10.5v88q54 0 84 9t44.5 23.5t18 32.5t3.5 36v343h-119v89h226z" />
    <glyph glyph-name="k" unicode="k" horiz-adv-x="620" 
d="M637 0h-142l-266 263l-3 -3l-85 -71v-189h-107l-1 610h108v-309l350 309h149l-335 -290z" />
    <glyph glyph-name="l" unicode="l" horiz-adv-x="452" 
d="M441 0h-410l-1 610h107v-521h304v-89z" />
    <glyph glyph-name="m" unicode="m" horiz-adv-x="698" 
d="M674 0h-114l-32 306l-184 -413l-177 425l-33 -318h-117l117 674l216 -544q0 -1 13 28.5t33.5 77.5t47 108t53 120.5t50.5 116t41 93.5z" />
    <glyph glyph-name="n" unicode="n" horiz-adv-x="686" 
d="M54 717l481 -551v444h107v-727l-481 552v-435h-106z" />
    <glyph glyph-name="o" unicode="o" horiz-adv-x="827" 
d="M413 -11q-88 0 -160.5 24.5t-123.5 68.5h2q-56 45 -84.5 101.5t-29.5 120.5q0 65 29 121.5t85 101.5h-2q51 44 123.5 68.5t160.5 24.5t160 -24.5t124 -68.5q53 -45 83.5 -101.5t30.5 -121.5q0 -64 -30 -121t-82 -101q-53 -44 -125 -68.5t-161 -24.5zM140 304
q0 -47 21 -88t57.5 -71.5t86.5 -48.5t108 -18t108 18t86.5 48.5t57 71.5t20.5 88t-20.5 88.5t-57 72t-86.5 48.5t-108 18t-108 -18t-86.5 -48.5t-57.5 -72t-21 -88.5z" />
    <glyph glyph-name="p" unicode="p" horiz-adv-x="474" 
d="M397 561q31 -26 46.5 -62t15.5 -78q1 -45 -20 -80t-52 -59q-9 -7 -21.5 -14.5t-32.5 -13.5t-48.5 -10t-67.5 -4h-69v-240h-107l-1 610h181q59 0 102.5 -13t72.5 -36h1zM323 353q27 19 30 66q-2 52 -25 74q-16 12 -43.5 20t-63.5 8h-73v-191h102q18 0 37.5 5.5t35.5 17.5z
" />
    <glyph glyph-name="q" unicode="q" horiz-adv-x="689" 
d="M647 -168q-40 10 -91 28t-105 39.5t-108 46t-100 49t-81 47.5t-51 41l1 -1q-42 44 -67.5 101.5t-25.5 120.5q0 65 24.5 121.5t69.5 101.5h-1q42 44 101.5 68.5t130.5 24.5q72 0 130.5 -24.5t101.5 -68.5q44 -45 68 -101.5t24 -121.5q0 -64 -23.5 -121t-67.5 -101
q-27 -27 -62 -48.5t-75 -32.5q59 -28 115.5 -49t91.5 -22v-98zM127 304q0 -66 29.5 -118.5t83.5 -81.5l-1 1q24 -13 51.5 -20t53.5 -7q47 0 87 18t69 48.5t45 71.5t16 88t-16 88.5t-45 72t-69 48.5t-87 18t-86.5 -18t-68.5 -48.5t-45.5 -72t-16.5 -88.5z" />
    <glyph glyph-name="r" unicode="r" horiz-adv-x="500" 
d="M376 0l-198 240h-10v-240h-107l-1 610h155q57 0 101 -13t73 -36q32 -27 47.5 -63t15.5 -77q1 -46 -19.5 -81t-51.5 -59q-11 -8 -30 -16.5t-51 -15.5q24 -30 51.5 -62.5t55.5 -65.5t54 -64t47 -57h-132zM243 330q18 0 37.5 6t35.5 17q12 11 20.5 27.5t9.5 40.5
q-2 50 -25 72q-16 12 -43.5 20t-62.5 8h-47v-191h75z" />
    <glyph glyph-name="s" unicode="s" horiz-adv-x="481" 
d="M236 -10q-37 0 -69.5 11.5t-60 32t-49 48.5t-36.5 60l75 62q7 -17 22.5 -38.5t34.5 -41t40.5 -32.5t42.5 -13q33 0 53.5 8.5t32.5 21.5t16 26.5t4 24.5t-2.5 24.5t-13.5 29t-33.5 31.5t-62.5 32q-58 24 -95 45.5t-58.5 43t-30 44t-8.5 48.5q0 27 10.5 57t34 54.5t62 40.5
t95.5 16q77 0 127 -37.5t77 -105.5l-91 -29q-31 79 -113 79q-45 0 -67 -17t-22 -45q0 -17 11.5 -30.5t31.5 -26t46.5 -24t57.5 -24.5q52 -23 82 -48t45 -51t19 -51t4 -47q0 -23 -10 -54t-34 -59t-65 -47t-103 -19z" />
    <glyph glyph-name="t" unicode="t" horiz-adv-x="427" 
d="M438 521h-161v-521h-107v521h-178v89h446v-89z" />
    <glyph glyph-name="u" unicode="u" horiz-adv-x="562" 
d="M516 610v-410q0 -53 -16.5 -93t-47 -66t-73 -39t-94.5 -13q-51 0 -94.5 13t-75 39t-50 66t-18.5 93v410h109v-414q0 -29 11 -51t29 -37t41 -22.5t48 -7.5t47.5 7t39 21t26 36.5t9.5 53.5v414h109z" />
    <glyph glyph-name="v" unicode="v" horiz-adv-x="560" 
d="M-22 610h113l182 -440l179 440h114l-294 -716z" />
    <glyph glyph-name="w" unicode="w" horiz-adv-x="719" 
d="M104 610l115 -423q13 50 26 107t26.5 115.5t26.5 114.5t25 105l61 1l110 -447q8 24 19.5 64.5t24.5 88t25.5 96.5t23 88.5t16.5 64.5l6 25h120l-247 -725l-128 486q-36 -175 -71.5 -299t-51.5 -189l-249 727h122z" />
    <glyph glyph-name="x" unicode="x" horiz-adv-x="611" 
d="M491 0l-200 243q-45 -60 -91 -123t-89 -120h-125l238 321l-226 289h127l166 -211q39 53 79.5 106.5t78.5 104.5h125l-214 -290l258 -320h-127z" />
    <glyph glyph-name="y" unicode="y" horiz-adv-x="503" 
d="M68 610l172 -234q13 17 25.5 34.5t24.5 34.5l116 165h125l-234 -331v-279h-107v280l-246 330h124z" />
    <glyph glyph-name="z" unicode="z" horiz-adv-x="479" 
d="M22 610h439v-66l-317 -455h317v-89h-454v66l314 455h-299v89z" />
    <glyph glyph-name="ydieresis" unicode="&#xff;" horiz-adv-x="503" 
d="M68 610l172 -234q13 17 25.5 34.5t24.5 34.5l116 165h125l-234 -331v-279h-107v280l-246 330h124zM108 708q0 23 17.5 38.5t43.5 15.5q25 0 43.5 -15.5t18.5 -38.5q0 -22 -18.5 -37t-43.5 -15q-26 0 -43.5 15t-17.5 37zM270 708q0 23 17.5 38.5t43.5 15.5q27 0 45 -15.5
t18 -38.5q0 -22 -18 -37t-45 -15q-26 0 -43.5 15t-17.5 37z" />
    <glyph glyph-name="agrave" unicode="&#xe0;" 
d="M461 0l-71 165h-224q-17 -39 -35.5 -83.5t-34.5 -81.5h-112l294 674l296 -674h-113zM354 254q-11 27 -19.5 47.5t-16.5 40.5t-17.5 43t-22.5 57q-18 -45 -37 -90.5t-39 -97.5h152zM153 781h152l87 -127h-83z" />
    <glyph glyph-name="aacute" unicode="&#xe1;" 
d="M461 0l-71 165h-224q-17 -39 -35.5 -83.5t-34.5 -81.5h-112l294 674l296 -674h-113zM354 254q-11 27 -19.5 47.5t-16.5 40.5t-17.5 43t-22.5 57q-18 -45 -37 -90.5t-39 -97.5h152zM241 654h-93l98 127h151z" />
    <glyph glyph-name="acircumflex" unicode="&#xe2;" 
d="M461 0l-71 165h-224q-17 -39 -35.5 -83.5t-34.5 -81.5h-112l294 674l296 -674h-113zM354 254q-11 27 -19.5 47.5t-16.5 40.5t-17.5 43t-22.5 57q-18 -45 -37 -90.5t-39 -97.5h152zM436 648h-120l-42 64l-22 -32q-5 -6 -9 -11.5t-7 -10.5q-4 -5 -7 -10h-119l126 128h75z
" />
    <glyph glyph-name="atilde" unicode="&#xe3;" 
d="M461 0l-71 165h-224q-17 -39 -35.5 -83.5t-34.5 -81.5h-112l294 674l296 -674h-113zM354 254q-11 27 -19.5 47.5t-16.5 40.5t-17.5 43t-22.5 57q-18 -45 -37 -90.5t-39 -97.5h152zM242 765q23 0 35.5 -7t29.5 -18q0 -1 0.5 -4t0.5 -7v-11q3 0 5.5 8.5t4.5 19.5q3 12 5 29
l76 -38q0 -17 -6 -29q-3 -6 -9.5 -16t-17 -19.5t-25 -17t-33.5 -7.5q-22 0 -39.5 8t-27.5 17q-2 -5 -6 -15.5t-12 -28.5l-76 55q3 7 10 20.5t19 27t28.5 23.5t37.5 10z" />
    <glyph glyph-name="adieresis" unicode="&#xe4;" 
d="M461 0l-71 165h-224q-17 -39 -35.5 -83.5t-34.5 -81.5h-112l294 674l296 -674h-113zM354 254q-11 27 -19.5 47.5t-16.5 40.5t-17.5 43t-22.5 57q-18 -45 -37 -90.5t-39 -97.5h152zM130 708q0 23 17.5 38.5t43.5 15.5q25 0 43.5 -15.5t18.5 -38.5q0 -22 -18.5 -37
t-43.5 -15q-26 0 -43.5 15t-17.5 37zM292 708q0 23 17.5 38.5t43.5 15.5q27 0 45 -15.5t18 -38.5q0 -22 -18 -37t-45 -15q-26 0 -43.5 15t-17.5 37z" />
    <glyph glyph-name="ccedilla" unicode="&#xe7;" horiz-adv-x="629" 
d="M610 107q-54 -54 -120.5 -86t-138.5 -32q-71 2 -129 25t-103 68q-43 45 -66 102t-23 120q-1 65 22.5 122t66.5 102q42 43 101.5 67.5t131.5 24.5t137.5 -31.5t119.5 -85.5l-67 -72q-47 47 -95.5 73.5t-94.5 26.5q-47 0 -87 -18t-69 -48.5t-45 -72t-16 -88.5t16 -88
t45 -71.5t69 -48.5t87 -18q45 0 94 27t95 73zM285 0h146l-131 -148h-103z" />
    <glyph glyph-name="egrave" unicode="&#xe8;" horiz-adv-x="580" 
d="M536 0h-485l-1 610h464v-89h-356v-152h325v-89h-325v-191h378v-89zM170 781h152l87 -127h-83z" />
    <glyph glyph-name="eacute" unicode="&#xe9;" horiz-adv-x="580" 
d="M536 0h-485l-1 610h464v-89h-356v-152h325v-89h-325v-191h378v-89zM258 654h-93l98 127h151z" />
    <glyph glyph-name="ecircumflex" unicode="&#xea;" horiz-adv-x="580" 
d="M536 0h-485l-1 610h464v-89h-356v-152h325v-89h-325v-191h378v-89zM453 648h-120l-42 64l-22 -32q-5 -6 -9 -11.5t-7 -10.5q-4 -5 -7 -10h-119l126 128h75z" />
    <glyph glyph-name="edieresis" unicode="&#xeb;" horiz-adv-x="580" 
d="M536 0h-485l-1 610h464v-89h-356v-152h325v-89h-325v-191h378v-89zM147 708q0 23 17.5 38.5t43.5 15.5q25 0 43.5 -15.5t18.5 -38.5q0 -22 -18.5 -37t-43.5 -15q-26 0 -43.5 15t-17.5 37zM309 708q0 23 17.5 38.5t43.5 15.5q27 0 45 -15.5t18 -38.5q0 -22 -18 -37
t-45 -15q-26 0 -43.5 15t-17.5 37z" />
    <glyph glyph-name="igrave" unicode="&#xec;" horiz-adv-x="204" 
d="M156 0h-107l-1 610h108v-610zM-17 781h152l87 -127h-83z" />
    <glyph glyph-name="iacute" unicode="&#xed;" horiz-adv-x="204" 
d="M156 0h-107l-1 610h108v-610zM71 654h-93l98 127h151z" />
    <glyph glyph-name="icircumflex" unicode="&#xee;" horiz-adv-x="204" 
d="M156 0h-107l-1 610h108v-610zM265 648h-120l-42 64l-22 -32q-5 -6 -9 -11.5t-7 -10.5q-4 -5 -7 -10h-119l126 128h75z" />
    <glyph glyph-name="idieresis" unicode="&#xef;" horiz-adv-x="204" 
d="M156 0h-107l-1 610h108v-610zM-41 708q0 23 17.5 38.5t43.5 15.5q25 0 43.5 -15.5t18.5 -38.5q0 -22 -18.5 -37t-43.5 -15q-26 0 -43.5 15t-17.5 37zM121 708q0 23 17.5 38.5t43.5 15.5q27 0 45 -15.5t18 -38.5q0 -22 -18 -37t-45 -15q-26 0 -43.5 15t-17.5 37z" />
    <glyph glyph-name="ntilde" unicode="&#xf1;" horiz-adv-x="686" 
d="M54 717l481 -551v444h107v-727l-481 552v-435h-106zM312 765q23 0 35.5 -7t29.5 -18q0 -1 0.5 -4t0.5 -7v-11q3 0 5.5 8.5t4.5 19.5q3 12 5 29l76 -38q0 -17 -6 -29q-3 -6 -9.5 -16t-17 -19.5t-25 -17t-33.5 -7.5q-22 0 -39.5 8t-27.5 17q-2 -5 -6 -15.5t-12 -28.5
l-76 55q3 7 10 20.5t19 27t28.5 23.5t37.5 10z" />
    <glyph glyph-name="ograve" unicode="&#xf2;" horiz-adv-x="827" 
d="M413 -11q-88 0 -160.5 24.5t-123.5 68.5h2q-56 45 -84.5 101.5t-29.5 120.5q0 65 29 121.5t85 101.5h-2q51 44 123.5 68.5t160.5 24.5t160 -24.5t124 -68.5q53 -45 83.5 -101.5t30.5 -121.5q0 -64 -30 -121t-82 -101q-53 -44 -125 -68.5t-161 -24.5zM140 304
q0 -47 21 -88t57.5 -71.5t86.5 -48.5t108 -18t108 18t86.5 48.5t57 71.5t20.5 88t-20.5 88.5t-57 72t-86.5 48.5t-108 18t-108 -18t-86.5 -48.5t-57.5 -72t-21 -88.5zM294 781h152l87 -127h-83z" />
    <glyph glyph-name="oacute" unicode="&#xf3;" horiz-adv-x="827" 
d="M413 -11q-88 0 -160.5 24.5t-123.5 68.5h2q-56 45 -84.5 101.5t-29.5 120.5q0 65 29 121.5t85 101.5h-2q51 44 123.5 68.5t160.5 24.5t160 -24.5t124 -68.5q53 -45 83.5 -101.5t30.5 -121.5q0 -64 -30 -121t-82 -101q-53 -44 -125 -68.5t-161 -24.5zM140 304
q0 -47 21 -88t57.5 -71.5t86.5 -48.5t108 -18t108 18t86.5 48.5t57 71.5t20.5 88t-20.5 88.5t-57 72t-86.5 48.5t-108 18t-108 -18t-86.5 -48.5t-57.5 -72t-21 -88.5zM382 654h-93l98 127h151z" />
    <glyph glyph-name="ocircumflex" unicode="&#xf4;" horiz-adv-x="827" 
d="M413 -11q-88 0 -160.5 24.5t-123.5 68.5h2q-56 45 -84.5 101.5t-29.5 120.5q0 65 29 121.5t85 101.5h-2q51 44 123.5 68.5t160.5 24.5t160 -24.5t124 -68.5q53 -45 83.5 -101.5t30.5 -121.5q0 -64 -30 -121t-82 -101q-53 -44 -125 -68.5t-161 -24.5zM140 304
q0 -47 21 -88t57.5 -71.5t86.5 -48.5t108 -18t108 18t86.5 48.5t57 71.5t20.5 88t-20.5 88.5t-57 72t-86.5 48.5t-108 18t-108 -18t-86.5 -48.5t-57.5 -72t-21 -88.5zM576 648h-120l-42 64l-22 -32q-5 -6 -9 -11.5t-7 -10.5q-4 -5 -7 -10h-119l126 128h75z" />
    <glyph glyph-name="odieresis" unicode="&#xf6;" horiz-adv-x="827" 
d="M413 -11q-88 0 -160.5 24.5t-123.5 68.5h2q-56 45 -84.5 101.5t-29.5 120.5q0 65 29 121.5t85 101.5h-2q51 44 123.5 68.5t160.5 24.5t160 -24.5t124 -68.5q53 -45 83.5 -101.5t30.5 -121.5q0 -64 -30 -121t-82 -101q-53 -44 -125 -68.5t-161 -24.5zM140 304
q0 -47 21 -88t57.5 -71.5t86.5 -48.5t108 -18t108 18t86.5 48.5t57 71.5t20.5 88t-20.5 88.5t-57 72t-86.5 48.5t-108 18t-108 -18t-86.5 -48.5t-57.5 -72t-21 -88.5zM270 708q0 23 17.5 38.5t43.5 15.5q25 0 43.5 -15.5t18.5 -38.5q0 -22 -18.5 -37t-43.5 -15
q-26 0 -43.5 15t-17.5 37zM432 708q0 23 17.5 38.5t43.5 15.5q27 0 45 -15.5t18 -38.5q0 -22 -18 -37t-45 -15q-26 0 -43.5 15t-17.5 37z" />
    <glyph glyph-name="ugrave" unicode="&#xf9;" horiz-adv-x="562" 
d="M516 610v-410q0 -53 -16.5 -93t-47 -66t-73 -39t-94.5 -13q-51 0 -94.5 13t-75 39t-50 66t-18.5 93v410h109v-414q0 -29 11 -51t29 -37t41 -22.5t48 -7.5t47.5 7t39 21t26 36.5t9.5 53.5v414h109zM161 781h152l87 -127h-83z" />
    <glyph glyph-name="uacute" unicode="&#xfa;" horiz-adv-x="562" 
d="M516 610v-410q0 -53 -16.5 -93t-47 -66t-73 -39t-94.5 -13q-51 0 -94.5 13t-75 39t-50 66t-18.5 93v410h109v-414q0 -29 11 -51t29 -37t41 -22.5t48 -7.5t47.5 7t39 21t26 36.5t9.5 53.5v414h109zM249 654h-93l98 127h151z" />
    <glyph glyph-name="ucircumflex" unicode="&#xfb;" horiz-adv-x="562" 
d="M516 610v-410q0 -53 -16.5 -93t-47 -66t-73 -39t-94.5 -13q-51 0 -94.5 13t-75 39t-50 66t-18.5 93v410h109v-414q0 -29 11 -51t29 -37t41 -22.5t48 -7.5t47.5 7t39 21t26 36.5t9.5 53.5v414h109zM444 648h-120l-42 64l-22 -32q-5 -6 -9 -11.5t-7 -10.5q-4 -5 -7 -10
h-119l126 128h75z" />
    <glyph glyph-name="udieresis" unicode="&#xfc;" horiz-adv-x="562" 
d="M516 610v-410q0 -53 -16.5 -93t-47 -66t-73 -39t-94.5 -13q-51 0 -94.5 13t-75 39t-50 66t-18.5 93v410h109v-414q0 -29 11 -51t29 -37t41 -22.5t48 -7.5t47.5 7t39 21t26 36.5t9.5 53.5v414h109zM138 708q0 23 17.5 38.5t43.5 15.5q25 0 43.5 -15.5t18.5 -38.5
q0 -22 -18.5 -37t-43.5 -15q-26 0 -43.5 15t-17.5 37zM300 708q0 23 17.5 38.5t43.5 15.5q27 0 45 -15.5t18 -38.5q0 -22 -18 -37t-45 -15q-26 0 -43.5 15t-17.5 37z" />
    <glyph glyph-name="yacute" unicode="&#xfd;" horiz-adv-x="503" 
d="M68 610l172 -234q13 17 25.5 34.5t24.5 34.5l116 165h125l-234 -331v-279h-107v280l-246 330h124zM220 654h-93l98 127h151z" />
  </font>
</defs>
</svg>
